<svg width="100" height="100" viewBox="0 0 100 100" xmlns="http://www.w3.org/2000/svg">
  <!-- Background circle -->
  <circle cx="50" cy="50" r="48" fill="#27ae60" stroke="#000" stroke-width="4"/>
  
  <!-- Face -->
  <circle cx="50" cy="45" r="25" fill="#ffdbac"/>
  
  <!-- Hair -->
  <path d="M25 35 Q50 20 75 35 Q75 30 50 25 Q25 30 25 35" fill="#8b4513"/>
  
  <!-- Hair braids -->
  <circle cx="30" cy="50" r="4" fill="#8b4513"/>
  <circle cx="70" cy="50" r="4" fill="#8b4513"/>
  
  <!-- Eyes -->
  <circle cx="42" cy="40" r="3" fill="#000"/>
  <circle cx="58" cy="40" r="3" fill="#000"/>
  
  <!-- Nose -->
  <circle cx="50" cy="47" r="1" fill="#ffb380"/>
  
  <!-- Mouth -->
  <path d="M45 52 Q50 57 55 52" stroke="#000" stroke-width="2" fill="none"/>
  
  <!-- Body/Dress -->
  <rect x="35" y="65" width="30" height="25" fill="#e67e22" stroke="#000" stroke-width="2"/>
  
  <!-- Arms -->
  <rect x="25" y="70" width="10" height="15" fill="#ffdbac" stroke="#000" stroke-width="1"/>
  <rect x="65" y="70" width="10" height="15" fill="#ffdbac" stroke="#000" stroke-width="1"/>
  
  <!-- Bear ears on head -->
  <circle cx="35" cy="25" r="6" fill="#8b4513"/>
  <circle cx="65" cy="25" r="6" fill="#8b4513"/>
</svg>