<svg width="100" height="100" viewBox="0 0 100 100" xmlns="http://www.w3.org/2000/svg">
  <!-- Background circle -->
  <circle cx="50" cy="50" r="48" fill="#e74c3c" stroke="#000" stroke-width="4"/>
  
  <!-- Face -->
  <circle cx="50" cy="45" r="25" fill="#d4a574"/>
  
  <!-- Bald head -->
  <path d="M25 35 Q50 15 75 35 Q75 25 50 20 Q25 25 25 35" fill="#d4a574"/>
  
  <!-- Mustache -->
  <path d="M40 50 Q50 55 60 50" stroke="#8b4513" stroke-width="4" fill="none"/>
  
  <!-- Eyes -->
  <circle cx="42" cy="40" r="3" fill="#000"/>
  <circle cx="58" cy="40" r="3" fill="#000"/>
  
  <!-- Angry eyebrows -->
  <path d="M38 35 L46 38" stroke="#000" stroke-width="3"/>
  <path d="M54 38 L62 35" stroke="#000" stroke-width="3"/>
  
  <!-- Nose -->
  <circle cx="50" cy="47" r="1" fill="#c49464"/>
  
  <!-- Mouth -->
  <path d="M45 55 Q50 60 55 55" stroke="#000" stroke-width="2" fill="none"/>
  
  <!-- Body/Tank top -->
  <rect x="35" y="65" width="30" height="25" fill="#34495e" stroke="#000" stroke-width="2"/>
  
  <!-- Arms (muscular) -->
  <rect x="22" y="70" width="13" height="15" fill="#d4a574" stroke="#000" stroke-width="1"/>
  <rect x="65" y="70" width="13" height="15" fill="#d4a574" stroke="#000" stroke-width="1"/>
</svg>