<svg width="100" height="100" viewBox="0 0 100 100" xmlns="http://www.w3.org/2000/svg">
  <!-- Background circle -->
  <circle cx="50" cy="50" r="48" fill="#8e44ad" stroke="#000" stroke-width="4"/>
  
  <!-- Face -->
  <circle cx="50" cy="45" r="25" fill="#ffdbac"/>
  
  <!-- Hair -->
  <path d="M25 35 Q50 10 75 35 Q70 20 50 15 Q30 20 25 35" fill="#ffd700"/>
  
  <!-- Eyes -->
  <circle cx="42" cy="40" r="3" fill="#000"/>
  <circle cx="58" cy="40" r="3" fill="#000"/>
  
  <!-- Sunglasses -->
  <rect x="38" y="37" width="24" height="8" fill="#000" rx="4"/>
  <rect x="40" y="39" width="8" height="4" fill="#333" rx="2"/>
  <rect x="52" y="39" width="8" height="4" fill="#333" rx="2"/>
  
  <!-- Nose -->
  <circle cx="50" cy="47" r="1" fill="#ffb380"/>
  
  <!-- Mouth -->
  <path d="M45 52 Q50 57 55 52" stroke="#000" stroke-width="2" fill="none"/>
  
  <!-- Body/Vest -->
  <rect x="35" y="65" width="30" height="25" fill="#2c3e50" stroke="#000" stroke-width="2"/>
  
  <!-- Arms -->
  <rect x="25" y="70" width="10" height="15" fill="#ffdbac" stroke="#000" stroke-width="1"/>
  <rect x="65" y="70" width="10" height="15" fill="#ffdbac" stroke="#000" stroke-width="1"/>
</svg>